<?xml version="1.0" encoding="iso-8859-1"?>
<!-- Uploaded to: SVG Repo, www.svgrepo.com, Generator: SVG Repo Mixer Tools -->
<svg height="800px" width="800px" version="1.1" id="Layer_1" xmlns="http://www.w3.org/2000/svg" xmlns:xlink="http://www.w3.org/1999/xlink" 
	 viewBox="0 0 512 512" xml:space="preserve">
<g>
	<path style="fill:#B3404A;" d="M361.584,438.601h-81.936c-7.467,0-13.522-6.055-13.522-13.522s6.055-13.522,13.522-13.522h81.936
		c12.78,0,23.178-10.396,23.178-23.177c0-7.467,6.055-13.522,13.522-13.522c7.467,0,13.522,6.055,13.522,13.522
		C411.806,416.072,389.277,438.601,361.584,438.601z"/>
	<path style="fill:#B3404A;" d="M338.968,512h-81.936c-27.692,0-50.221-22.529-50.221-50.221s22.529-50.222,50.221-50.222h81.936
		c7.467,0,13.522,6.055,13.522,13.522s-6.055,13.522-13.522,13.522h-81.936c-12.78,0-23.177,10.397-23.177,23.178
		c0,12.781,10.397,23.177,23.177,23.177h81.936c7.467,0,13.522,6.055,13.522,13.522S346.434,512,338.968,512z"/>
	<path style="fill:#B3404A;" d="M210.451,160.177c-0.001,0-0.003,0-0.004,0c-21.884-0.004-51.842-30.124-72.582-58.311
		c-13.525-18.382-24.246-37.344-30.188-53.393c-8.023-21.668-6.723-36.604,3.861-44.39C115.168,1.412,119.641,0,124.477,0
		c21.883,0,51.842,30.122,72.583,58.311c13.525,18.382,24.246,37.344,30.188,53.393c8.023,21.666,6.723,36.603-3.861,44.39
		C219.756,158.766,215.283,160.177,210.451,160.177z M130.048,29.24c2.195,10.392,10.899,31.183,29.6,56.598
		c18.701,25.416,35.959,39.91,45.228,45.098c-2.196-10.393-10.899-31.183-29.6-56.596C156.575,48.922,139.316,34.427,130.048,29.24z
		"/>
	<path style="fill:#B3404A;" d="M435.473,357.234c-6.802,0-14.882-1.725-24.215-5.182c-16.049-5.943-35.012-16.663-53.393-30.188
		c-18.382-13.525-34.259-28.438-44.708-41.994c-14.107-18.299-17.309-32.945-9.519-43.529c4.426-6.017,12.892-7.301,18.904-2.876
		c5.306,3.904,6.934,10.951,4.204,16.687c1.658,6.823,16.422,27.322,47.146,49.929c25.415,18.7,46.206,27.405,56.598,29.6
		c-5.187-9.268-19.683-26.527-45.1-45.228c-6.015-4.426-7.303-12.891-2.877-18.905c4.424-6.016,12.888-7.303,18.905-2.877
		c18.382,13.526,34.259,28.438,44.708,41.994c14.106,18.298,17.309,32.944,9.521,43.529
		C451.213,354.218,444.461,357.234,435.473,357.234z"/>
</g>
<path style="fill:#F4B2B0;" d="M307.015,380.258c-42.955-17.961-90.243-51.485-133.151-94.393S97.433,195.67,79.471,152.714
	c-18.683-44.67-18.374-79.873,0.869-99.117l38.275-38.275c0.203-0.203,0.488-0.291,0.849-0.273
	c-10.162,7.744,2.909,42.948,29.29,78.802c26.46,35.962,56.285,58.952,66.617,51.351c0.603-0.444,1.118-0.99,1.564-1.617
	c-1.182,2.546-2.863,4.973-5.107,7.218l-27.573,27.573c-4.868,4.872-5.302,12.573-1.001,17.918
	c11.607,14.428,24.383,28.629,37.967,42.213c13.584,13.584,27.786,26.36,42.213,37.967c5.344,4.3,13.045,3.867,17.918-1.002
	l27.573-27.573c2.245-2.245,4.672-3.925,7.218-5.107c-0.627,0.445-1.174,0.961-1.617,1.564
	c-7.602,10.331,15.389,40.156,51.351,66.617c35.855,26.381,71.059,39.452,78.802,29.29c0.018,0.361-0.07,0.646-0.273,0.849
	l-38.275,38.275C386.888,398.632,351.685,398.94,307.015,380.258z"/>
<path style="fill:#B3404A;" d="M365.323,407.57c-18.612,0-39.984-4.991-63.526-14.838c-44.539-18.622-93.369-53.181-137.495-97.305
	c-44.125-44.125-78.682-92.955-97.305-137.497C46.056,107.865,47.4,67.415,70.78,44.036L109.055,5.76
	c2.745-2.735,6.404-4.235,10.319-4.235c0.23,0,0.553,0.008,0.784,0.02c5.666,0.291,10.55,4.088,12.227,9.509
	c1.428,4.614,0.275,9.567-2.883,13.061c-0.48,6.957,7.503,30.949,30.147,61.722c21.827,29.664,41.69,44.452,49.174,46.927
	c4.236-3.176,10.1-3.662,14.903-0.874c6.046,3.51,8.42,11.05,5.475,17.391c-1.885,4.057-4.511,7.786-7.809,11.083l-27.533,27.533
	c11.275,14.007,23.697,27.816,36.928,41.046c13.257,13.257,27.094,25.704,41.128,36.992l27.451-27.6
	c3.305-3.302,7.034-5.929,11.089-7.81c6.345-2.941,13.88-0.567,17.387,5.482c2.788,4.803,2.3,10.665-0.875,14.9
	c2.475,7.484,17.263,27.348,46.927,49.174c26.86,19.764,51.228,30.105,61.414,30.105c0.134,0,0.254-0.003,0.364-0.005
	c3.495-3.128,8.435-4.261,13.03-2.829c5.428,1.689,9.218,6.591,9.488,12.267c0.197,4.146-1.339,8.175-4.217,11.054l-38.275,38.275
	C403.511,401.131,386.093,407.57,365.323,407.57z M106.79,46.272L89.904,63.16c-14.89,14.89-14.145,45.63,2.043,84.338
	c17.297,41.369,49.785,87.113,91.479,128.806s87.438,74.18,128.805,91.479c20.219,8.457,38.082,12.743,53.093,12.743
	c13.634,0,24.146-3.6,31.247-10.7l16.963-16.963c-18.491-6.435-39.369-19.005-55.67-30.998
	c-18.382-13.526-34.259-28.438-44.708-41.994c-2.712-3.52-5.023-6.904-6.929-10.151l-15.312,15.314
	c-5.114,5.109-11.894,7.918-19.094,7.918c-6.108,0-12.095-2.112-16.861-5.944c-14.789-11.897-29.356-24.998-43.299-38.941
	c-13.944-13.944-27.044-28.511-38.942-43.299c-8.634-10.73-7.786-26.185,1.971-35.951l15.327-15.329
	c-17.891-10.446-37.367-31.526-52.154-51.624C132.467,94.529,115.011,69.803,106.79,46.272z"/>
</svg>