<?xml version="1.0" encoding="UTF-8"?>
<svg width="256px" height="256px" viewBox="0 0 256 256" version="1.1" xmlns="http://www.w3.org/2000/svg" xmlns:xlink="http://www.w3.org/1999/xlink">
    <!-- Generator: Sketch 43.2 (39069) - http://www.bohemiancoding.com/sketch -->
    <title>icon-phone</title>
    <desc>Created with Sketch.</desc>
    <defs>
        <polygon id="path-1" points="97.419622 0.189781022 0.0285365854 0.189781022 0.0285365854 194.526496 194.810707 194.526496 194.810707 0.189781022 97.419622 0.189781022"></polygon>
    </defs>
    <g id="Page-1" stroke="none" stroke-width="1" fill="none" fill-rule="evenodd">
        <g id="icon-phone">
            <g id="auricular-phone-symbol-in-a-circle-(1)" transform="translate(31.000000, 31.000000)">
                <mask id="mask-2" fill="white">
                    <use xlink:href="#path-1"></use>
                </mask>
                <g id="Clip-2"></g>
                <path d="M97.4053537,12.3367153 C144.396073,12.3367153 182.634146,50.4817518 182.634146,97.3581387 C182.634146,144.234526 144.396073,182.379562 97.4053537,182.379562 C50.4146341,182.379562 12.176561,144.234526 12.176561,97.3581387 C12.176561,50.4817518 50.4146341,12.3367153 97.4053537,12.3367153 L97.4053537,12.3367153 Z M97.4053537,0.189781022 C43.612939,0.189781022 0,43.6966058 0,97.3581387 C0,151.017299 43.612939,194.526496 97.4053537,194.526496 C151.19539,194.526496 194.810707,151.017299 194.810707,97.3581387 C194.810707,43.6966058 151.19539,0.189781022 97.4053537,0.189781022 Z M151.708573,129.844854 L151.160195,128.18427 C149.876524,124.366825 145.644549,120.38 141.742646,119.312482 L127.344512,115.387336 C123.444988,114.33073 117.880829,115.754088 115.013854,118.614088 L109.806402,123.808869 C90.8766585,118.695219 76.0271707,103.881861 70.9143659,84.9981752 L76.1218171,79.8033942 C78.9754756,76.9566788 80.4023049,71.4060584 79.343122,67.5027372 L75.4193415,53.139635 C74.3625366,49.2472263 70.3417317,45.0255474 66.5149756,43.745 L64.8722195,43.1979562 C61.0321463,41.9174088 55.5516951,43.2112409 52.6980366,46.0688686 L44.8966098,53.8513139 C43.5073537,55.2262774 42.6155854,59.1756204 42.6155854,59.1889051 C42.3535244,83.8841606 52.0550122,107.666095 69.5579268,125.13781 C87.0123293,142.549745 110.770463,152.216715 135.440817,152.003686 C135.573037,152.003686 139.650915,151.13781 141.042549,149.750036 L148.841598,141.967591 C151.695256,139.134161 152.980829,133.664672 151.708573,129.844854 Z" id="Fill-1" fill="#AF1617" mask="url(#mask-2)"></path>
            </g>
        </g>
    </g>
</svg>